<?xml version="1.0" encoding="utf-8"?>
<!-- Generator: Adobe Illustrator 19.0.0, SVG Export Plug-In . SVG Version: 6.00 Build 0)  -->
<svg version="1.1" xmlns="http://www.w3.org/2000/svg" xmlns:xlink="http://www.w3.org/1999/xlink" x="0px" y="0px"
	 viewBox="0 0 16383 16383" style="enable-background:new 0 0 16383 16383;" xml:space="preserve">
<style type="text/css">
	.st0{display:none;}
	.st1{display:inline;}
	.st2{fill:#4F76BB;}
	.st3{fill-rule:evenodd;clip-rule:evenodd;fill:#4F76BB;}
	.st4{fill:#34C4F3;}
	.st5{display:inline;fill-rule:evenodd;clip-rule:evenodd;fill:#34C4F3;}
	.st6{fill:#F1574A;}
	.st7{fill:#7D5742;}
	.st8{display:inline;fill-rule:evenodd;clip-rule:evenodd;fill:#7D5742;}
	.st9{fill-rule:evenodd;clip-rule:evenodd;fill:#5076BA;}
	.st10{fill-rule:evenodd;clip-rule:evenodd;fill:#FFFFFF;}
</style>
<g id="Layer_1" class="st0">
	<g id="XMLID_360_" class="st1">
		<g id="XMLID_5_">
			<path id="XMLID_6_" class="st2" d="M15825.6,5761.9c1074.6,3307.3-102.7,6930.4-2916,8974.5c-2813.3,2044-6622.8,2044-9436.1,0
				C660.1,12692.3-517.2,9069.2,557.5,5761.9c1074.7-3307.4,4156.7-5546.2,7634-5546.2C11668.8,215.7,14750.9,2454.5,15825.6,5761.9
				z M8191.5,938.8c-3164.1,0-5968.6,2037.5-6946.1,5046.6c-977.8,3009.2,93.2,6306,2653.1,8165.7
				c2560,1860.3,6026.2,1860.3,8586.1,0c2559.9-1859.7,3631-5156.5,2653.1-8165.7C14160.1,2976.3,11355.6,938.8,8191.5,938.8z"/>
		</g>
		<path id="XMLID_7_" class="st3" d="M9282.5,5935.2c217.8-7.9,435.2-2,653.6-2c26.8,0,53.6,0,89.9,0V4800
			c-116.4-11.1-238-28.1-359.6-33.9c-223.3-9.8-446.9-21-670.6-15.7c-341.3,7.2-664.3,90.3-946.5,292.3
			c-323.3,232.8-500.8,559.8-568.5,945.6c-28.1,158.9-35.3,324.3-39.6,485.8c-6.2,254.4-0.9,508.1-0.6,762.4v95.5H6356.7v1265.2
			H7434v3179.9h1316.6V8602.3h1074c54.9-421.1,108.9-837.6,165.1-1271.1c-86.3,0-163.8-0.7-241.3,0c-305.4,1.3-1006.3,0-1006.3,0
			s2.9-627.1,10.4-899.1C8763,6059.4,8984,5945.6,9282.5,5935.2z"/>
	</g>
	<g id="XMLID_4_">
		<g id="XMLID_8_" class="st1">
			<path id="XMLID_9_" class="st4" d="M15825.5,5762c1074.7,3307.3-102.6,6930.4-2915.9,8974.5c-2813.3,2044-6622.9,2044-9436.2,0
				C660.1,12692.4-517.2,9069.3,557.5,5762C1632.1,2454.7,4714.2,215.8,8191.5,215.8C11668.8,215.8,14750.9,2454.7,15825.5,5762z
				 M8191.5,938.9c-3164.1,0-5968.6,2037.5-6946.1,5046.6c-977.9,3009.2,93.1,6306,2653.1,8165.7
				c2559.9,1860.3,6026.2,1860.3,8586.1,0c2559.9-1859.7,3631-5156.5,2653.1-8165.7C14160.1,2976.4,11355.7,938.9,8191.5,938.9z"/>
		</g>
		<path id="XMLID_10_" class="st5" d="M7002.5,9984.1c-808.5-28.1-1314-608.8-1447.7-1080.2c224.9,43.2,446.6,34.7,667-19.6
			c5.9-1.3,11.4-5.2,22.6-10.5c-438.1-102-776.2-336.1-1010.9-714c-155.6-251.1-230.1-525.7-227.9-827.1
			c218.7,116.4,447.2,181.7,692.5,188.3c-329.2-237.4-550.3-547.3-640.5-944.2c-89.6-395.7-31.7-771.6,167.1-1126.7
			c842.5,992,1908.7,1536.7,3209.3,1626.3c-8.8-62.1-18.6-115.8-24.8-170.7c-43.5-366.2,29.4-707.5,227.5-1017.5
			c247.2-388.4,600.9-629.7,1055-703.5c523.4-85.7,980.2,63.4,1362.4,434.2c25.5,24.8,46.7,32.7,82.7,24.8
			c319.8-70,621.5-185.1,905.3-348.5c6.5-4,13.4-7.2,20.6-10.4c1.3-0.7,4-0.7,10.2-0.7c-122.9,361.6-347.2,640.8-666.4,846.7
			c301.4-33.3,589.2-113.1,866.8-233.4c2.3,2.6,4.2,5.2,6.2,7.2c-59.5,77.8-117,157.6-178.8,233.4
			c-165.1,203.3-354.7,382.5-565.7,537.5c-17.9,13.1-26.4,25.5-25.8,49.1c8.5,230.8-0.3,461.6-28.8,690.5
			c-60.1,483.9-194.8,944.8-401.1,1385.5c-213.2,455.1-491.1,865.8-841.3,1226.7c-592.7,612.7-1306.7,1008.2-2138.5,1192
			c-285.1,62.7-574.4,94.1-866.8,102.6c-897.1,26.1-1726.9-196.9-2489.9-668.3c-9.8-5.9-19.6-12.4-36.6-23.5
			c543,58.2,1059.6-11.1,1556.6-214.5C6526.5,10307.1,6771,10165.2,7002.5,9984.1z"/>
	</g>
	<g id="XMLID_346_">
		<g id="XMLID_35_" class="st1">
			<path id="XMLID_36_" class="st6" d="M15825.6,5761.9c1074.6,3307.3-102.7,6930.4-2916,8974.5c-2813.3,2044-6622.8,2044-9436.2,0
				C660.1,12692.3-517.2,9069.2,557.5,5761.9C1632.1,2454.6,4714.2,215.7,8191.5,215.7S14750.9,2454.6,15825.6,5761.9z
				 M8191.5,938.9c-3164.1,0-5968.6,2037.5-6946.1,5046.6c-977.9,3009.2,93.1,6306,2653.1,8165.7
				c2559.9,1860.3,6026.2,1860.3,8586.1,0c2560-1859.7,3631-5156.5,2653.1-8165.7C14160.2,2976.4,11355.7,938.9,8191.5,938.9z"/>
		</g>
		<g id="XMLID_37_" class="st1">
			<path id="XMLID_38_" class="st6" d="M7076,7760.1c-1,16.4-2.6,30.7-2.6,43.9c0,338,0.9,1069,0.9,1069s1406.5,0,1482.4,0
				c0,109.9-130.1,551.9-544.4,833.1c-242.6,164.1-515.6,240-804.6,258.3c-204,13.1-404.8-7.2-600.9-70
				c-618.2-198.1-1078.5-757.8-1141.7-1439.2c-15.3-168.1-4.2-336.1,33.7-502.2c183.7-805.6,947.2-1403.2,1821.4-1274.4
				c387.4,57.5,610.4,218.4,813.8,392.3c267.4-268.1,532.9-532.9,805.2-806.2c-66.4-47.7-219.1-203.3-490.7-360.2
				c-406.4-234.8-844.5-352.5-1313.3-357.7c-88.3-0.7-176.9,4.6-264.9,8.5c-154.9,5.9-306.9,32.7-456.4,70.6
				C5815,5778.9,5318,6093.4,4928.4,6573.4c-374.7,461-575.4,991.2-612.4,1582.4c-16,250.4,3.3,500.2,58.5,745.4
				c155.6,686,515.2,1239.8,1083.2,1655c439.7,322.4,935.1,493.7,1478.4,523.7c305.3,16.4,609.4-11.7,907.6-89.5
				c554.8-145.2,1015.5-434.9,1361.7-895.8c501.8-667,622.8-1522.3,475-2334.4C8810.1,7760.1,7944.4,7760.1,7076,7760.1z"/>
			<polygon id="XMLID_39_" class="st6" points="13029.2,7796.1 12091.2,7796.1 12091.2,6857.8 12091.2,6830.4 12063.5,6830.4 
				11363.2,6830.4 11335,6830.4 11335,6857.8 11335,7796.1 10396.7,7796.1 10369.6,7796.1 10369.6,7823.6 10369.6,8523.9 
				10369.6,8552 10396.7,8552 11335,8552 11335,9491 11335,9518.4 11363.2,9518.4 12063.5,9518.4 12091.2,9518.4 12091.2,9491 
				12091.2,8552 13029.2,8552 13057,8552 13057,8523.9 13057,7823.6 13057,7796.1 			"/>
		</g>
	</g>
	<g id="XMLID_104_">
		<g id="XMLID_2_" class="st1">
			<path id="XMLID_112_" class="st7" d="M15806.2,5788.6c1071.6,3298.9-102.5,6912.8-2908.6,8951.7
				c-2806.2,2038.8-6605.9,2038.8-9412.1,0C679.4,12701.4-494.9,9087.5,577,5788.6C1648.9,2489.7,4722.8,256.5,8191.6,256.5
				C11660.1,256.5,14734.3,2489.7,15806.2,5788.6z M8191.6,977.9c-3156.1,0-5953.4,2032.3-6928.5,5033.8
				c-975.4,3001.5,92.9,6290,2646.4,8144.8c2553.4,1855.6,6010.8,1855.6,8564.2,0c2553.1-1854.9,3621.8-5143.3,2646.4-8144.8
				C14144.7,3010.2,11347.7,977.9,8191.6,977.9z"/>
		</g>
		<path id="XMLID_111_" class="st8" d="M10237.6,5285.8H6145.3c-513.6,0-930.7,417.4-930.7,931.3v4092
			c0,513.9,417.1,930.7,930.7,930.7h4092.4c513.9,0,931-416.7,931-930.7v-4092C11168.6,5703.2,10751.5,5285.8,10237.6,5285.8z
			 M9466,6106.9c0-92,74.3-165.7,166.3-165.7h718.8c91.6,0,166.3,73.7,166.3,165.7v719.4c0,91.4-74.7,165.7-166.3,165.7h-718.8
			c-92,0-166.3-74.3-166.3-165.7V6106.9z M7093.9,7833.3c171.9-438.3,598.7-749.4,1097.4-749.4c499,0,925.8,311.1,1097.7,749.4
			c52.5,133,81.5,277.8,81.5,429.8c0,650.2-528.6,1179.2-1179.2,1179.2c-649.9,0-1178.9-529-1178.9-1179.2
			C7012.4,8111.2,7041.1,7966.4,7093.9,7833.3z M10538.3,10309.1c0,165.6-135.4,300.7-300.7,300.7H6145.3
			c-165.3,0-300.3-135-300.3-300.7V7833.3h588.3c-33.9,137.6-51.2,281.7-51.2,429.8c0,999.9,809.7,1809.3,1809.3,1809.3
			c999.9,0,1809.9-809.4,1809.9-1809.3c0-148.1-17.6-292.2-51.6-429.8h588.7V10309.1z"/>
	</g>
</g>
<g id="Layer_1_copy">
	<g id="XMLID_51_">
		<g id="XMLID_53_">
			<path id="XMLID_54_" class="st2" d="M15825.6,5761.9c1074.6,3307.3-102.7,6930.4-2916,8974.5c-2813.3,2044-6622.8,2044-9436.1,0
				C660.1,12692.3-517.2,9069.2,557.5,5761.9c1074.7-3307.4,4156.7-5546.2,7634-5546.2C11668.8,215.7,14750.9,2454.5,15825.6,5761.9
				z M8191.5,938.8c-3164.1,0-5968.6,2037.5-6946.1,5046.6c-977.8,3009.2,93.2,6306,2653.1,8165.7
				c2560,1860.3,6026.2,1860.3,8586.1,0c2559.9-1859.7,3631-5156.5,2653.1-8165.7C14160.1,2976.3,11355.6,938.8,8191.5,938.8z"/>
		</g>
		<circle id="XMLID_57_" class="st9" cx="8191.5" cy="8263" r="7512.5"/>
		<path id="XMLID_52_" class="st10" d="M9282.5,5935.2c217.8-7.9,435.2-2,653.6-2c26.8,0,53.6,0,89.9,0V4800
			c-116.4-11.1-238-28.1-359.6-33.9c-223.3-9.8-446.9-21-670.6-15.7c-341.3,7.2-664.3,90.3-946.5,292.3
			c-323.3,232.8-500.8,559.8-568.5,945.6c-28.1,158.9-35.3,324.3-39.6,485.8c-6.2,254.4-0.9,508.1-0.6,762.4v95.5H6356.7v1265.2
			H7434v3179.9h1316.6V8602.3h1074c54.9-421.1,108.9-837.6,165.1-1271.1c-86.3,0-163.8-0.7-241.3,0c-305.4,1.3-1006.3,0-1006.3,0
			s2.9-627.1,10.4-899.1C8763,6059.4,8984,5945.6,9282.5,5935.2z"/>
	</g>
	<g id="XMLID_45_" class="st0">
		<g id="XMLID_47_" class="st1">
			<path id="XMLID_48_" class="st4" d="M15825.5,5762c1074.7,3307.3-102.6,6930.4-2915.9,8974.5c-2813.3,2044-6622.9,2044-9436.2,0
				C660.1,12692.4-517.2,9069.3,557.5,5762C1632.1,2454.7,4714.2,215.8,8191.5,215.8C11668.8,215.8,14750.9,2454.7,15825.5,5762z
				 M8191.5,938.9c-3164.1,0-5968.6,2037.5-6946.1,5046.6c-977.9,3009.2,93.1,6306,2653.1,8165.7
				c2559.9,1860.3,6026.2,1860.3,8586.1,0c2559.9-1859.7,3631-5156.5,2653.1-8165.7C14160.1,2976.4,11355.7,938.9,8191.5,938.9z"/>
		</g>
		<path id="XMLID_46_" class="st5" d="M7002.5,9984.1c-808.5-28.1-1314-608.8-1447.7-1080.2c224.9,43.2,446.6,34.7,667-19.6
			c5.9-1.3,11.4-5.2,22.6-10.5c-438.1-102-776.2-336.1-1010.9-714c-155.6-251.1-230.1-525.7-227.9-827.1
			c218.7,116.4,447.2,181.7,692.5,188.3c-329.2-237.4-550.3-547.3-640.5-944.2c-89.6-395.7-31.7-771.6,167.1-1126.7
			c842.5,992,1908.7,1536.7,3209.3,1626.3c-8.8-62.1-18.6-115.8-24.8-170.7c-43.5-366.2,29.4-707.5,227.5-1017.5
			c247.2-388.4,600.9-629.7,1055-703.5c523.4-85.7,980.2,63.4,1362.4,434.2c25.5,24.8,46.7,32.7,82.7,24.8
			c319.8-70,621.5-185.1,905.3-348.5c6.5-4,13.4-7.2,20.6-10.4c1.3-0.7,4-0.7,10.2-0.7c-122.9,361.6-347.2,640.8-666.4,846.7
			c301.4-33.3,589.2-113.1,866.8-233.4c2.3,2.6,4.2,5.2,6.2,7.2c-59.5,77.8-117,157.6-178.8,233.4
			c-165.1,203.3-354.7,382.5-565.7,537.5c-17.9,13.1-26.4,25.5-25.8,49.1c8.5,230.8-0.3,461.6-28.8,690.5
			c-60.1,483.9-194.8,944.8-401.1,1385.5c-213.2,455.1-491.1,865.8-841.3,1226.7c-592.7,612.7-1306.7,1008.2-2138.5,1192
			c-285.1,62.7-574.4,94.1-866.8,102.6c-897.1,26.1-1726.9-196.9-2489.9-668.3c-9.8-5.9-19.6-12.4-36.6-23.5
			c543,58.2,1059.6-11.1,1556.6-214.5C6526.5,10307.1,6771,10165.2,7002.5,9984.1z"/>
	</g>
	<g id="XMLID_27_" class="st0">
		<g id="XMLID_41_" class="st1">
			<path id="XMLID_42_" class="st6" d="M15825.6,5761.9c1074.6,3307.3-102.7,6930.4-2916,8974.5c-2813.3,2044-6622.8,2044-9436.2,0
				C660.1,12692.3-517.2,9069.2,557.5,5761.9C1632.1,2454.6,4714.2,215.7,8191.5,215.7S14750.9,2454.6,15825.6,5761.9z
				 M8191.5,938.9c-3164.1,0-5968.6,2037.5-6946.1,5046.6c-977.9,3009.2,93.1,6306,2653.1,8165.7
				c2559.9,1860.3,6026.2,1860.3,8586.1,0c2560-1859.7,3631-5156.5,2653.1-8165.7C14160.2,2976.4,11355.7,938.9,8191.5,938.9z"/>
		</g>
		<g id="XMLID_33_" class="st1">
			<path id="XMLID_40_" class="st6" d="M7076,7760.1c-1,16.4-2.6,30.7-2.6,43.9c0,338,0.9,1069,0.9,1069s1406.5,0,1482.4,0
				c0,109.9-130.1,551.9-544.4,833.1c-242.6,164.1-515.6,240-804.6,258.3c-204,13.1-404.8-7.2-600.9-70
				c-618.2-198.1-1078.5-757.8-1141.7-1439.2c-15.3-168.1-4.2-336.1,33.7-502.2c183.7-805.6,947.2-1403.2,1821.4-1274.4
				c387.4,57.5,610.4,218.4,813.8,392.3c267.4-268.1,532.9-532.9,805.2-806.2c-66.4-47.7-219.1-203.3-490.7-360.2
				c-406.4-234.8-844.5-352.5-1313.3-357.7c-88.3-0.7-176.9,4.6-264.9,8.5c-154.9,5.9-306.9,32.7-456.4,70.6
				C5815,5778.9,5318,6093.4,4928.4,6573.4c-374.7,461-575.4,991.2-612.4,1582.4c-16,250.4,3.3,500.2,58.5,745.4
				c155.6,686,515.2,1239.8,1083.2,1655c439.7,322.4,935.1,493.7,1478.4,523.7c305.3,16.4,609.4-11.7,907.6-89.5
				c554.8-145.2,1015.5-434.9,1361.7-895.8c501.8-667,622.8-1522.3,475-2334.4C8810.1,7760.1,7944.4,7760.1,7076,7760.1z"/>
			<polygon id="XMLID_34_" class="st6" points="13029.2,7796.1 12091.2,7796.1 12091.2,6857.8 12091.2,6830.4 12063.5,6830.4 
				11363.2,6830.4 11335,6830.4 11335,6857.8 11335,7796.1 10396.7,7796.1 10369.6,7796.1 10369.6,7823.6 10369.6,8523.9 
				10369.6,8552 10396.7,8552 11335,8552 11335,9491 11335,9518.4 11363.2,9518.4 12063.5,9518.4 12091.2,9518.4 12091.2,9491 
				12091.2,8552 13029.2,8552 13057,8552 13057,8523.9 13057,7823.6 13057,7796.1 			"/>
		</g>
	</g>
	<g id="XMLID_1_" class="st0">
		<g id="XMLID_16_" class="st1">
			<path id="XMLID_24_" class="st7" d="M15806.2,5788.6c1071.6,3298.9-102.5,6912.8-2908.6,8951.7
				c-2806.2,2038.8-6605.9,2038.8-9412.1,0C679.4,12701.4-494.9,9087.5,577,5788.6C1648.9,2489.7,4722.8,256.5,8191.6,256.5
				C11660.1,256.5,14734.3,2489.7,15806.2,5788.6z M8191.6,977.9c-3156.1,0-5953.4,2032.3-6928.5,5033.8
				c-975.4,3001.5,92.9,6290,2646.4,8144.8c2553.4,1855.6,6010.8,1855.6,8564.2,0c2553.1-1854.9,3621.8-5143.3,2646.4-8144.8
				C14144.7,3010.2,11347.7,977.9,8191.6,977.9z"/>
		</g>
		<path id="XMLID_11_" class="st8" d="M10237.6,5285.8H6145.3c-513.6,0-930.7,417.4-930.7,931.3v4092
			c0,513.9,417.1,930.7,930.7,930.7h4092.4c513.9,0,931-416.7,931-930.7v-4092C11168.6,5703.2,10751.5,5285.8,10237.6,5285.8z
			 M9466,6106.9c0-92,74.3-165.7,166.3-165.7h718.8c91.6,0,166.3,73.7,166.3,165.7v719.4c0,91.4-74.7,165.7-166.3,165.7h-718.8
			c-92,0-166.3-74.3-166.3-165.7V6106.9z M7093.9,7833.3c171.9-438.3,598.7-749.4,1097.4-749.4c499,0,925.8,311.1,1097.7,749.4
			c52.5,133,81.5,277.8,81.5,429.8c0,650.2-528.6,1179.2-1179.2,1179.2c-649.9,0-1178.9-529-1178.9-1179.2
			C7012.4,8111.2,7041.1,7966.4,7093.9,7833.3z M10538.3,10309.1c0,165.6-135.4,300.7-300.7,300.7H6145.3
			c-165.3,0-300.3-135-300.3-300.7V7833.3h588.3c-33.9,137.6-51.2,281.7-51.2,429.8c0,999.9,809.7,1809.3,1809.3,1809.3
			c999.9,0,1809.9-809.4,1809.9-1809.3c0-148.1-17.6-292.2-51.6-429.8h588.7V10309.1z"/>
	</g>
</g>
</svg>
